<svg version="1" xmlns="http://www.w3.org/2000/svg" width="666.667" height="666.667" viewBox="0 0 500.000000 500.000000"><path d="M222.5 63c-9.6 1.5-21.3 3.8-22.4 4.4-.4.3-1.8.7-3.2 1-7.5 1.4-31.3 10.3-34.7 12.9-.7.6-3.4 2-6 3.2-15.6 7.4-38.9 26.4-54.5 44.6C87.5 145.5 73 173 66.5 195.5c-5.9 20.5-7 28.9-7 54 0 23.7.5 27.9 5 45.7 15.1 59.2 57.1 106.6 113.7 128.4 10.2 4 16.2 5.7 31.3 9.1 9.3 2.1 14.3 2.5 32 2.8 28.8.5 42.7-1.5 67.2-10 8.7-2.9 23.2-9.4 25.4-11.2.8-.7 2-1.3 2.5-1.3 1.7 0 21.5-13.3 28.4-19 9.8-8.2 23.6-22.5 30.2-31.5 3.2-4.4 6.2-8.5 6.6-9 2-2.6 8.4-13.9 12.5-22 8.1-16.2 14.4-37 17.5-57.5.9-6 .9-44.2 0-50.5-2-13.6-7.1-33-11.5-43.5-4.5-10.8-15-30.9-18.5-35.5-.4-.6-3.4-4.6-6.7-9-5.9-8.1-19.3-22.2-28.6-30.3-21.7-18.8-59.2-36.2-88.4-40.8-1.8-.3-4.3-.8-5.5-1.1-3.4-.9-44.7-1.1-50.1-.3zm39.5 61.5c29 4.3 53.4 16.6 73.5 36.9 13.2 13.3 23.3 29.8 29.4 48.1 3.1 9.2 3.4 10.6 5.5 23.6 4 23.9-2.5 56-15.7 78.4-9.4 15.9-20.5 28.4-33.6 37.8-11.1 8-14 9.6-29.6 16.7-1.1.5-4.9 1.8-8.5 2.8-36.3 10.9-74.2 5.5-105.6-14.9-4.3-2.8-8.1-5.5-8.4-5.8-.3-.4-1.6-1.5-3-2.4-4.6-3.1-13.1-12.1-19.1-20-8.5-11.3-13.4-19.9-17.9-31.9-9.2-24.4-10.7-43.9-5.5-71.7 1-5.6 6.2-20.8 9.5-27.7 11.7-24.4 36.1-48.5 60.2-59.3 7.1-3.1 20.5-7.6 26.1-8.7 15.5-3 31-3.7 42.7-1.9z"/></svg>